<svg aria-hidden="true" style="position: absolute; width: 0; height: 0; overflow: hidden;" version="1.1" xmlns="http://www.w3.org/2000/svg" xmlns:xlink="http://www.w3.org/1999/xlink">
<defs>
<symbol id="icon-quote-right" viewBox="0 0 26 28">
<path d="M12 5v11c0 4.406-3.594 8-8 8h-1c-0.547 0-1-0.453-1-1v-2c0-0.547 0.453-1 1-1h1c2.203 0 4-1.797 4-4v-0.5c0-0.828-0.672-1.5-1.5-1.5h-3.5c-1.656 0-3-1.344-3-3v-6c0-1.656 1.344-3 3-3h6c1.656 0 3 1.344 3 3zM26 5v11c0 4.406-3.594 8-8 8h-1c-0.547 0-1-0.453-1-1v-2c0-0.547 0.453-1 1-1h1c2.203 0 4-1.797 4-4v-0.5c0-0.828-0.672-1.5-1.5-1.5h-3.5c-1.656 0-3-1.344-3-3v-6c0-1.656 1.344-3 3-3h6c1.656 0 3 1.344 3 3z"></path>
</symbol>
<symbol id="icon-quote-left" viewBox="0 0 26 28">
<path d="M12 15v6c0 1.656-1.344 3-3 3h-6c-1.656 0-3-1.344-3-3v-11c0-4.406 3.594-8 8-8h1c0.547 0 1 0.453 1 1v2c0 0.547-0.453 1-1 1h-1c-2.203 0-4 1.797-4 4v0.5c0 0.828 0.672 1.5 1.5 1.5h3.5c1.656 0 3 1.344 3 3zM26 15v6c0 1.656-1.344 3-3 3h-6c-1.656 0-3-1.344-3-3v-11c0-4.406 3.594-8 8-8h1c0.547 0 1 0.453 1 1v2c0 0.547-0.453 1-1 1h-1c-2.203 0-4 1.797-4 4v0.5c0 0.828 0.672 1.5 1.5 1.5h3.5c1.656 0 3 1.344 3 3z"></path>
</symbol>
<symbol id="icon-link" viewBox="0 0 26 28">
<path d="M22.75 19c0-0.406-0.156-0.781-0.438-1.062l-3.25-3.25c-0.281-0.281-0.672-0.438-1.062-0.438-0.453 0-0.812 0.172-1.125 0.5 0.516 0.516 1.125 0.953 1.125 1.75 0 0.828-0.672 1.5-1.5 1.5-0.797 0-1.234-0.609-1.75-1.125-0.328 0.313-0.516 0.672-0.516 1.141 0 0.391 0.156 0.781 0.438 1.062l3.219 3.234c0.281 0.281 0.672 0.422 1.062 0.422s0.781-0.141 1.062-0.406l2.297-2.281c0.281-0.281 0.438-0.656 0.438-1.047zM11.766 7.984c0-0.391-0.156-0.781-0.438-1.062l-3.219-3.234c-0.281-0.281-0.672-0.438-1.062-0.438s-0.781 0.156-1.062 0.422l-2.297 2.281c-0.281 0.281-0.438 0.656-0.438 1.047 0 0.406 0.156 0.781 0.438 1.062l3.25 3.25c0.281 0.281 0.672 0.422 1.062 0.422 0.453 0 0.812-0.156 1.125-0.484-0.516-0.516-1.125-0.953-1.125-1.75 0-0.828 0.672-1.5 1.5-1.5 0.797 0 1.234 0.609 1.75 1.125 0.328-0.313 0.516-0.672 0.516-1.141zM25.75 19c0 1.188-0.484 2.344-1.328 3.172l-2.297 2.281c-0.844 0.844-1.984 1.297-3.172 1.297-1.203 0-2.344-0.469-3.187-1.328l-3.219-3.234c-0.844-0.844-1.297-1.984-1.297-3.172 0-1.234 0.5-2.406 1.375-3.266l-1.375-1.375c-0.859 0.875-2.016 1.375-3.25 1.375-1.188 0-2.344-0.469-3.187-1.313l-3.25-3.25c-0.859-0.859-1.313-1.984-1.313-3.187 0-1.188 0.484-2.344 1.328-3.172l2.297-2.281c0.844-0.844 1.984-1.297 3.172-1.297 1.203 0 2.344 0.469 3.187 1.328l3.219 3.234c0.844 0.844 1.297 1.984 1.297 3.172 0 1.234-0.5 2.406-1.375 3.266l1.375 1.375c0.859-0.875 2.016-1.375 3.25-1.375 1.188 0 2.344 0.469 3.187 1.313l3.25 3.25c0.859 0.859 1.313 1.984 1.313 3.187z"></path>
</symbol>
<symbol id="icon-linkedin-square" viewBox="0 0 24 28">
<path d="M3.703 22.094h3.609v-10.844h-3.609v10.844zM7.547 7.906c-0.016-1.062-0.781-1.875-2.016-1.875s-2.047 0.812-2.047 1.875c0 1.031 0.781 1.875 2 1.875h0.016c1.266 0 2.047-0.844 2.047-1.875zM16.688 22.094h3.609v-6.219c0-3.328-1.781-4.875-4.156-4.875-1.937 0-2.797 1.078-3.266 1.828h0.031v-1.578h-3.609s0.047 1.016 0 10.844v0h3.609v-6.062c0-0.313 0.016-0.641 0.109-0.875 0.266-0.641 0.859-1.313 1.859-1.313 1.297 0 1.813 0.984 1.813 2.453v5.797zM24 6.5v15c0 2.484-2.016 4.5-4.5 4.5h-15c-2.484 0-4.5-2.016-4.5-4.5v-15c0-2.484 2.016-4.5 4.5-4.5h15c2.484 0 4.5 2.016 4.5 4.5z"></path>
</symbol>
<symbol id="icon-envelope" viewBox="0 0 28 28">
<path d="M28 11.094v12.406c0 1.375-1.125 2.5-2.5 2.5h-23c-1.375 0-2.5-1.125-2.5-2.5v-12.406c0.469 0.516 1 0.969 1.578 1.359 2.594 1.766 5.219 3.531 7.766 5.391 1.313 0.969 2.938 2.156 4.641 2.156h0.031c1.703 0 3.328-1.188 4.641-2.156 2.547-1.844 5.172-3.625 7.781-5.391 0.562-0.391 1.094-0.844 1.563-1.359zM28 6.5c0 1.75-1.297 3.328-2.672 4.281-2.438 1.687-4.891 3.375-7.313 5.078-1.016 0.703-2.734 2.141-4 2.141h-0.031c-1.266 0-2.984-1.437-4-2.141-2.422-1.703-4.875-3.391-7.297-5.078-1.109-0.75-2.688-2.516-2.688-3.938 0-1.531 0.828-2.844 2.5-2.844h23c1.359 0 2.5 1.125 2.5 2.5z"></path>
</symbol>
<symbol id="icon-github" viewBox="0 0 24 28">
<path d="M12 2c6.625 0 12 5.375 12 12 0 5.297-3.437 9.797-8.203 11.391-0.609 0.109-0.828-0.266-0.828-0.578 0-0.391 0.016-1.687 0.016-3.297 0-1.125-0.375-1.844-0.812-2.219 2.672-0.297 5.484-1.313 5.484-5.922 0-1.313-0.469-2.375-1.234-3.219 0.125-0.313 0.531-1.531-0.125-3.187-1-0.313-3.297 1.234-3.297 1.234-0.953-0.266-1.984-0.406-3-0.406s-2.047 0.141-3 0.406c0 0-2.297-1.547-3.297-1.234-0.656 1.656-0.25 2.875-0.125 3.187-0.766 0.844-1.234 1.906-1.234 3.219 0 4.594 2.797 5.625 5.469 5.922-0.344 0.313-0.656 0.844-0.766 1.609-0.688 0.313-2.438 0.844-3.484-1-0.656-1.141-1.844-1.234-1.844-1.234-1.172-0.016-0.078 0.734-0.078 0.734 0.781 0.359 1.328 1.75 1.328 1.75 0.703 2.141 4.047 1.422 4.047 1.422 0 1 0.016 1.937 0.016 2.234 0 0.313-0.219 0.688-0.828 0.578-4.766-1.594-8.203-6.094-8.203-11.391 0-6.625 5.375-12 12-12zM4.547 19.234c0.031-0.063-0.016-0.141-0.109-0.187-0.094-0.031-0.172-0.016-0.203 0.031-0.031 0.063 0.016 0.141 0.109 0.187 0.078 0.047 0.172 0.031 0.203-0.031zM5.031 19.766c0.063-0.047 0.047-0.156-0.031-0.25-0.078-0.078-0.187-0.109-0.25-0.047-0.063 0.047-0.047 0.156 0.031 0.25 0.078 0.078 0.187 0.109 0.25 0.047zM5.5 20.469c0.078-0.063 0.078-0.187 0-0.297-0.063-0.109-0.187-0.156-0.266-0.094-0.078 0.047-0.078 0.172 0 0.281s0.203 0.156 0.266 0.109zM6.156 21.125c0.063-0.063 0.031-0.203-0.063-0.297-0.109-0.109-0.25-0.125-0.313-0.047-0.078 0.063-0.047 0.203 0.063 0.297 0.109 0.109 0.25 0.125 0.313 0.047zM7.047 21.516c0.031-0.094-0.063-0.203-0.203-0.25-0.125-0.031-0.266 0.016-0.297 0.109s0.063 0.203 0.203 0.234c0.125 0.047 0.266 0 0.297-0.094zM8.031 21.594c0-0.109-0.125-0.187-0.266-0.172-0.141 0-0.25 0.078-0.25 0.172 0 0.109 0.109 0.187 0.266 0.172 0.141 0 0.25-0.078 0.25-0.172zM8.937 21.438c-0.016-0.094-0.141-0.156-0.281-0.141-0.141 0.031-0.234 0.125-0.219 0.234 0.016 0.094 0.141 0.156 0.281 0.125s0.234-0.125 0.219-0.219z"></path>
</symbol>
<symbol id="icon-map-marker" viewBox="0 0 16 28">
<path d="M12 10c0-2.203-1.797-4-4-4s-4 1.797-4 4 1.797 4 4 4 4-1.797 4-4zM16 10c0 0.953-0.109 1.937-0.516 2.797l-5.688 12.094c-0.328 0.688-1.047 1.109-1.797 1.109s-1.469-0.422-1.781-1.109l-5.703-12.094c-0.406-0.859-0.516-1.844-0.516-2.797 0-4.422 3.578-8 8-8s8 3.578 8 8z"></path>
</symbol>
<symbol id="icon-discord" viewBox="0 0 42 32">
<path d="M34.662 2.656c-2.351-1.165-5.080-2.086-7.944-2.625l-0.198-0.031c-0.006-0.001-0.013-0.002-0.021-0.002-0.020 0-0.039 0.005-0.055 0.013l0.001-0c-0.023 0.012-0.042 0.031-0.054 0.054l-0 0.001c-0.352 0.656-0.742 1.514-1.014 2.186-1.375-0.23-2.958-0.362-4.573-0.362s-3.198 0.132-4.741 0.385l0.168-0.023c-0.304-0.747-0.648-1.477-1.030-2.184-0.012-0.023-0.031-0.042-0.054-0.054l-0.001-0c-0.016-0.008-0.035-0.013-0.055-0.013-0.007 0-0.014 0.001-0.021 0.002l0.001-0c-3.062 0.566-5.792 1.486-8.33 2.736l0.186-0.083c-0.022 0.010-0.040 0.027-0.051 0.047l-0 0.001c-5.184 8.13-6.608 16.062-5.91 23.894 0.005 0.039 0.024 0.072 0.053 0.096l0 0c2.846 2.236 6.163 4.040 9.757 5.234l0.23 0.066c0.012 0.004 0.025 0.007 0.039 0.007s0.028-0.002 0.040-0.007l-0.001 0c0.026-0.010 0.047-0.027 0.062-0.049l0-0c0.77-1.102 1.456-2.264 2.045-3.488 0.008-0.017 0.013-0.037 0.013-0.058 0-0.037-0.015-0.071-0.039-0.095l0 0c-0.012-0.012-0.027-0.022-0.044-0.029l-0.001-0c-1.213-0.494-2.239-1.017-3.215-1.616l0.095 0.054c-0.028-0.017-0.048-0.043-0.057-0.074l-0-0.001c-0.003-0.011-0.005-0.025-0.005-0.038 0-0.022 0.005-0.042 0.014-0.060l-0 0.001c0.009-0.020 0.021-0.036 0.037-0.049l0-0c0.211-0.166 0.421-0.339 0.621-0.512 0.021-0.018 0.049-0.029 0.079-0.029 0.018 0 0.034 0.004 0.050 0.011l-0.001-0c6.547 3.139 13.634 3.139 20.101 0 0.015-0.007 0.033-0.011 0.052-0.011 0.031 0 0.060 0.012 0.081 0.031l-0-0c0.2 0.173 0.411 0.346 0.621 0.512 0.031 0.025 0.051 0.063 0.051 0.106 0 0.003-0 0.006-0 0.008l0-0c-0.002 0.045-0.025 0.085-0.060 0.108l-0 0c-0.998 0.61-2.043 1.131-3.123 1.558-0.018 0.007-0.034 0.018-0.046 0.032l-0 0c-0.022 0.024-0.036 0.056-0.036 0.091 0 0.004 0 0.008 0.001 0.012l-0-0.001c0 0.018 0.006 0.035 0.014 0.053 0.6 1.219 1.288 2.384 2.042 3.486 0.016 0.022 0.038 0.040 0.064 0.048 0.012 0.005 0.026 0.007 0.041 0.007 0.013 0 0.025-0.002 0.037-0.006l-0.001 0c3.83-1.257 7.152-3.060 10.072-5.352l-0.070 0.053c0.030-0.022 0.050-0.057 0.053-0.096l0-0c0.835-9.056-1.397-16.923-5.915-23.894-0.009-0.023-0.027-0.041-0.049-0.049l-0.001-0zM14.166 21.826c-1.971 0-3.594-1.901-3.594-4.23 0-2.333 1.592-4.232 3.595-4.232 2.016 0 3.624 1.915 3.595 4.232 0 2.33-1.594 4.23-3.595 4.23zM27.458 21.826c-1.97 0-3.595-1.901-3.595-4.23 0-2.333 1.592-4.232 3.595-4.232 2.018 0 3.627 1.915 3.595 4.232 0 2.33-1.578 4.23-3.595 4.23z"></path>
</symbol>
<symbol id="icon-logo" viewBox="0 0 32 32">
<path d="M28.687 29.092c2.436-4.825-3.878-26.17-8.656-28.761s-20.663 10.781-20.012 13.217c0.652 2.436 23.021-1.225 23.921 1.396s-19.314 11.976-18.522 14.334c0.791 2.358 20.834 4.638 23.269-0.186z"></path>
</symbol>
</defs>
</svg>
